<?xml version="1.0" encoding="utf-8"?>
<!-- Generator: Adobe Illustrator 22.1.0, SVG Export Plug-In . SVG Version: 6.00 Build 0)  -->
<svg version="1.1" xmlns="http://www.w3.org/2000/svg" xmlns:xlink="http://www.w3.org/1999/xlink" x="0px" y="0px"
	 viewBox="0 0 750 500" style="enable-background:new 0 0 750 500;" xml:space="preserve">
<style type="text/css">
	.st0{fill:#FFFFFF;}
	.st1{fill:#F0F7FF;}
	.st2{fill:#00CCBE;}
	.st3{fill:#09B2A1;}
	.st4{fill:none;stroke:#F0F7FF;stroke-width:0.5535;stroke-miterlimit:10;}
	.st5{fill:#FFB149;}
	.st6{fill:#FF9D4D;}
	.st7{fill:none;stroke:#F0F7FF;stroke-width:0.6132;stroke-miterlimit:10;}
	.st8{fill:#000061;}
	.st9{opacity:0.47;fill:#DAE7F2;}
	.st10{fill:#F74F73;}
	.st11{fill:#DAE7F2;}
	.st12{fill:none;stroke:#00CCBE;stroke-width:2.0785;stroke-linecap:round;stroke-linejoin:round;stroke-miterlimit:10;}
	.st13{fill:none;stroke:#F0F7FF;stroke-width:1.9978;stroke-linecap:round;stroke-linejoin:round;stroke-miterlimit:10;}
	.st14{fill:#EDA6A6;}
	.st15{fill:#E54871;}
	.st16{fill:none;stroke:#F74F73;stroke-width:1.1189;stroke-miterlimit:10;}
	.st17{fill:#FFE9E9;}
</style>
<g id="BACKGROUND">
	<rect id="XMLID_62_" class="st0" width="750" height="500"/>
</g>
<g id="OBJECTS">
	<g>
		<circle id="XMLID_90_" class="st1" cx="251.1" cy="227.4" r="166.6"/>
		<circle id="XMLID_298_" class="st1" cx="622" cy="185.1" r="72.3"/>
		<g id="XMLID_339_">
			<path id="XMLID_342_" class="st2" d="M376.3,215c-0.2,0.1-0.3,0.2-0.5,0.3h0c-11.4,6.8-45.1-3.9-45.1-3.9
				c-0.4-1.2-25.6-10.8-21-28.9c4.6-18,6.1-21.9,1.8-27.4c-4.2-5.5-18.8-6.5-19.9-17.2c-1.1-10.7,6.1-23.2,2.6-29
				c-3.5-5.7-13.3-8.3-13.5-16.2c-0.2-7.9,7.4-10,4.2-19c-2.9-8.4-6.3-26.4,2.7-30.4c0.6-0.3,1.4-0.5,2.1-0.6
				c11.6-2,14,26.8,21.6,29.2c7.6,2.4,14.4,6.1,15.5,13.8s-1.3,19,4.4,22.7s14.2,3.3,18.3,14c4.1,10.7-0.6,18,6.1,22.7
				c6.6,4.8,22.8,6.7,28,21.8C388.8,182,387.1,207.5,376.3,215z"/>
			<path id="XMLID_341_" class="st3" d="M376.3,215c-0.2,0.1-0.3,0.2-0.5,0.3h0c-45.3-56.3-79.1-146.1-88.2-172
				c0.6-0.3,1.4-0.5,2.1-0.6c11.6-2,14,26.8,21.6,29.2c7.6,2.4,14.4,6.1,15.5,13.8s-1.3,19,4.4,22.7s14.2,3.3,18.3,14
				c4.1,10.7-0.6,18,6.1,22.7c6.6,4.8,22.8,6.7,28,21.8C388.8,182,387.1,207.5,376.3,215z"/>
			<path id="XMLID_340_" class="st4" d="M291.7,57c1.1,0.7,47.6,133.5,114.8,189.4"/>
		</g>
		<g id="XMLID_343_">
			<path id="XMLID_346_" class="st5" d="M317.8,90.7c4.9,20.5,15.7,37.5,29.1,48.1c6-12.9,8.4-29.1,6.2-46c-3.1,3.3-7.6,7.9-7.8,8.2
				l6.6-14.9c-0.2-1.1-0.5-2.2-0.7-3.3c-4.9-20.5-15.7-37.5-29.1-48.1c-5.9,12.6-8.3,28.3-6.3,44.8c4.8,3.1,10.1,6.7,10.1,6.7
				l-9.4-2.3C316.8,86.2,317.2,88.5,317.8,90.7z"/>
			<path id="XMLID_345_" class="st6" d="M317.8,90.7c4.9,20.5,15.7,37.5,29.1,48.1L322.1,34.7c-5.9,12.6-8.3,28.3-6.3,44.8
				c4.8,3.1,10.1,6.7,10.1,6.7l-9.4-2.3C316.8,86.2,317.2,88.5,317.8,90.7z"/>
			<line id="XMLID_344_" class="st7" x1="325.1" y1="47.5" x2="350.4" y2="153.9"/>
		</g>
		<g id="XMLID_149_">
			<g id="XMLID_157_">
				<path id="XMLID_158_" class="st1" d="M167.7,188.4c-0.6,0-1.2-0.4-1.4-1.1c-0.2-0.8,0.3-1.5,1-1.7l129.1-30.8l91.3-55.5
					c0.6-0.3,1.3-0.2,1.8,0.3l65.9,71.6l102-61.3l73.8-62.2c0.6-0.5,1.5-0.4,2,0.2c0.5,0.6,0.4,1.5-0.2,2l-73.8,62.3
					c-0.1,0-0.1,0.1-0.2,0.1l-103.1,62c-0.6,0.3-1.3,0.2-1.8-0.3l-65.9-71.6l-90.5,55c-0.1,0.1-0.3,0.1-0.4,0.2L168,188.4
					C167.9,188.4,167.8,188.4,167.7,188.4z"/>
			</g>
			<g id="XMLID_150_">
				<g id="XMLID_156_">
					<path id="XMLID_17_" class="st1" d="M627.6,43.8l10.1-2.7c1.3-0.4,2.6,0.9,2.2,2.2l-2.7,10.1c-0.4,1.3-2,1.8-3,0.8l-7.4-7.4
						C625.8,45.8,626.2,44.1,627.6,43.8z"/>
				</g>
				<g id="XMLID_155_">
					<path id="XMLID_16_" class="st1" d="M173.6,187c0,3.3-2.7,5.9-5.9,5.9c-3.3,0-5.9-2.7-5.9-5.9c0-3.3,2.7-5.9,5.9-5.9
						C171,181.1,173.6,183.7,173.6,187z"/>
				</g>
				<g id="XMLID_154_">
					<path id="XMLID_15_" class="st1" d="M303,156.1c0,3.3-2.7,5.9-5.9,5.9c-3.3,0-5.9-2.7-5.9-5.9c0-3.3,2.7-5.9,5.9-5.9
						C300.3,150.2,303,152.8,303,156.1z"/>
				</g>
				<g id="XMLID_153_">
					<path id="XMLID_166_" class="st1" d="M394.5,100.5c0,3.3-2.7,5.9-5.9,5.9c-3.3,0-5.9-2.7-5.9-5.9c0-3.3,2.7-5.9,5.9-5.9
						C391.8,94.6,394.5,97.2,394.5,100.5z"/>
				</g>
				<g id="XMLID_152_">
					<path id="XMLID_164_" class="st1" d="M461.2,173c0,3.3-2.7,5.9-5.9,5.9c-3.3,0-5.9-2.7-5.9-5.9c0-3.3,2.7-5.9,5.9-5.9
						C458.5,167.1,461.2,169.7,461.2,173z"/>
				</g>
				<g id="XMLID_151_">
					<path id="XMLID_162_" class="st1" d="M564.3,111c0,3.3-2.7,5.9-5.9,5.9c-3.3,0-5.9-2.7-5.9-5.9c0-3.3,2.7-5.9,5.9-5.9
						C561.6,105.1,564.3,107.8,564.3,111z"/>
				</g>
			</g>
		</g>
		<g id="XMLID_72_">
			<path id="XMLID_74_" class="st0" d="M507.4,128.1v140.5c0,2.8-2.2,5-5,5h-228c-2.8,0-5-2.2-5-5V128.1c0-2.8,2.2-5,5-5h228
				C505.2,123.1,507.4,125.3,507.4,128.1z"/>
			<path id="XMLID_73_" class="st8" d="M507.4,128.1v17.4H269.4v-17.4c0-2.8,2.2-5,5-5h228C505.2,123.1,507.4,125.3,507.4,128.1z"/>
		</g>
		<g id="XMLID_332_">
			<polygon id="XMLID_336_" class="st1" points="434.7,178.8 401.5,212 339.9,273.6 273.5,273.6 368.3,178.8 			"/>
			<polygon id="XMLID_335_" class="st1" points="529.5,273.6 463.1,273.6 401.5,212 368.3,178.8 434.7,178.8 			"/>
			<polygon id="XMLID_334_" class="st1" points="624.2,178.8 591.1,212 529.4,273.6 463.1,273.6 557.9,178.8 			"/>
			<path id="XMLID_333_" class="st1" d="M566.2,178.8h-17c-4.6,0-6.1-6.1-2.1-8.3l81.1-41.7c2.6-1.4,5.7,0,6.4,2.9l7.1,41.7
				c0.7,2.8-1.4,5.4-4.3,5.4H566.2z"/>
		</g>
		<g id="XMLID_113_">
			<circle id="XMLID_117_" class="st1" cx="387.1" cy="161" r="4.1"/>
			<circle id="XMLID_116_" class="st1" cx="419.3" cy="161" r="4.1"/>
			<path id="XMLID_115_" class="st1" d="M455.5,161c0,2.2-1.8,4.1-4.1,4.1c-2.2,0-4.1-1.8-4.1-4.1c0-2.2,1.8-4.1,4.1-4.1
				C453.7,156.9,455.5,158.8,455.5,161z"/>
			<circle id="XMLID_114_" class="st1" cx="483.7" cy="161" r="4.1"/>
		</g>
		<path id="XMLID_319_" class="st9" d="M364.2,214.5c-1.8-1.2-3.6-1.8-5.5-1.8h-8.3l0.6-4.4c0,0-1.9-1.1-3.1,1
			c-0.9,1.8-2.9,5.5-3.6,6.7l-2.9,4.9l0,0l-14,19.6c0,0-5.8-9.6-10.3-17.1c-3.4-5.6-8.7-9.8-14.9-11.8l-10.4-3.2
			c-0.5-0.3-1.1-0.5-1.7-0.4v-3.6c0.4,0.2,0.6,0.3,0.7,0.3c0,0.1,2.1,0.1,4,0.1c1.9,0,3.6-1,4.7-2.6l2.1-3.1c0,0,0.7-1.9,0.7-3.1
			c0-0.5-0.3-1.2-0.8-1.7c1.1-5.7,1.1-11.6,0-17.4c-0.1-1.2-0.3-2.3-0.7-3.4c2.3-1.6,2.8-4.3,3.8-7.3l0,0c0.9-2.7-1.3-5.4-4.1-5.2
			l-13.5,1.3c-4.4,0.4-8.7,1.5-12.8,3.4v0c-3.6,1.6-5.9,5.4-5.5,9.3l0.5,5.2l1.3,5.4c0.4,1.5,1,3,1.9,4.3c0,0,0,0.1,0,0.1
			c0.4,1.7,1.2,3,2.1,3.8l0.6,16.1c-0.1,0-0.1,0-0.1,0.1l0,0l-6.9,1.8c-8.2,2.8-14.5,9.3-17,17.6c-2.3,7.6-5.1,16.7-7,22.6
			c-1.4,4.4-2,9-1.8,13.7l1.6,40.7l0.8,0.1l-1.8,10.3c-0.2,1.2,0.3,2.4,1.4,3l5.7,3.5c1.4,0.8,3.2-0.2,3.1-1.8l-0.1-3.9l1.7-1.3
			c0.6-0.5,0.9-1.3,0.6-2l-2.2-6.8l1.3,0.2c0,0,3.6-35.5,4.5-36.9c0.2-0.3,1.2-2.5,2.7-5.7l3.9,26.5l-0.4,0l-12,134.6l1.5,0.6
			l-0.8,5.1l-0.3,0c0,0-2.1,0.6-2.5,2c-0.4,1.4-0.2,3,1.2,4.1c1.4,1.1,17.6,9.6,17.6,9.6c2.7,1.5,6.2,1.2,8.5-0.9l-8.2-7l0.9,0
			c-0.8-0.6-1.5-0.9-2.1-1l-2-1.7l0,0v0l-1.7-1.5c-0.8-0.7-1.7-1.2-2.6-1.7l-1.3-0.6l0.5-3.7l1.3,0.5l0.2-0.9l22.8-90.6l15,89.7
			l1.6,0.2l0.5,5.1l-0.3,0.1c0,0-1.9,1.2-1.9,2.6c0,1.4,0.6,2.9,2.2,3.6c1.6,0.7,19.4,4.8,19.4,4.8c3,0.8,6.2-0.4,8-3v0l-9.8-4.7
			l0.9-0.2c-0.9-0.3-1.6-0.5-2.3-0.4l-4.5-2.1c-0.9-0.4-1.9-0.8-2.9-1l-1.4-0.3l-0.5-3.7l1.4,0.1l0-0.9l-6.3-133l0,0l0.7-4.1l-0.3,0
			l4.2-47l12.4,10.9c1.4,1.2,3.1,2.1,4.9,2.4c4.7,0.8,9.1-1.9,10.7-6.2l9.8-27.2l-0.6-0.3c0.5-0.5,1.1-1.3,1.8-2.1
			c1.5-1.9,4.6-2.6,7-2.7c0,0,12,0.4,12.4-1.1C368.1,216.4,366,215.7,364.2,214.5z"/>
		<ellipse id="XMLID_39_" class="st1" cx="283.3" cy="446.2" rx="78.7" ry="9.8"/>
		<path id="XMLID_159_" class="st10" d="M140.4,128h-31.6c-5.2,0-9.4-4.2-9.4-9.4v0c0-5.2,4.2-9.4,9.4-9.4h31.6
			c5.2,0,9.4,4.2,9.4,9.4v0C149.7,123.9,145.5,128,140.4,128z"/>
		<path id="XMLID_14_" class="st2" d="M410.3,312.9h-31.6c-5.2,0-9.4-4.2-9.4-9.4l0,0c0-5.2,4.2-9.4,9.4-9.4h31.6
			c5.2,0,9.4,4.2,9.4,9.4l0,0C419.6,308.8,415.4,312.9,410.3,312.9z"/>
		<g id="XMLID_122_">
			<rect id="XMLID_135_" x="571" y="261.7" class="st2" width="4.1" height="11.9"/>
			<rect id="XMLID_134_" x="578.7" y="251.1" class="st11" width="4.1" height="22.5"/>
			<rect id="XMLID_133_" x="586.4" y="259.9" class="st11" width="4.1" height="13.7"/>
			<rect id="XMLID_132_" x="594.2" y="244.9" class="st10" width="4.1" height="28.7"/>
			<rect id="XMLID_131_" x="601.9" y="253.7" class="st11" width="4.1" height="19.9"/>
			<rect id="XMLID_130_" x="609.6" y="244.9" class="st11" width="4.1" height="28.7"/>
			<rect id="XMLID_129_" x="617.3" y="233.8" class="st2" width="4.1" height="39.8"/>
			<rect id="XMLID_128_" x="625" y="244.9" class="st11" width="4.1" height="28.7"/>
			<rect id="XMLID_127_" x="632.8" y="239.5" class="st2" width="4.1" height="34.1"/>
			<rect id="XMLID_126_" x="640.5" y="244.9" class="st11" width="4.1" height="28.7"/>
			<rect id="XMLID_125_" x="648.2" y="252.5" class="st11" width="4.1" height="21.1"/>
			<rect id="XMLID_124_" x="655.9" y="236.9" class="st10" width="4.1" height="36.7"/>
			<rect id="XMLID_123_" x="663.7" y="252.5" class="st2" width="4.1" height="21.1"/>
		</g>
		<g id="XMLID_138_">
			<path id="XMLID_13_" class="st0" d="M209.7,298.1h-78c-3.9,0-7.1-3.2-7.1-7.1v-43.2c0-3.9,3.2-7.1,7.1-7.1h78
				c3.9,0,7.1,3.2,7.1,7.1V291C216.7,294.9,213.6,298.1,209.7,298.1z"/>
			<g id="XMLID_139_">
				<rect id="XMLID_147_" x="133.2" y="262.6" class="st2" width="6.6" height="24.5"/>
				<rect id="XMLID_146_" x="142.9" y="265.4" class="st2" width="6.6" height="21.7"/>
				<rect id="XMLID_145_" x="152.7" y="269.4" class="st2" width="6.6" height="17.7"/>
				<rect id="XMLID_144_" x="162.4" y="265.4" class="st2" width="6.6" height="21.7"/>
				<rect id="XMLID_143_" x="172.2" y="261" class="st2" width="6.6" height="26.1"/>
				<rect id="XMLID_142_" x="181.9" y="255.4" class="st2" width="6.6" height="31.8"/>
				<rect id="XMLID_141_" x="191.7" y="262.6" class="st2" width="6.6" height="24.5"/>
				<rect id="XMLID_140_" x="201.4" y="267" class="st2" width="6.6" height="20.1"/>
			</g>
		</g>
		<path id="XMLID_137_" class="st10" d="M175.1,73.5l2.6,4.8c0,0.1,0.1,0.1,0.1,0.1l4.8,2.6c0.2,0.1,0.2,0.5,0,0.6l-4.8,2.6
			c-0.1,0-0.1,0.1-0.1,0.1l-2.6,4.8c-0.1,0.2-0.5,0.2-0.6,0l-2.6-4.8c0-0.1-0.1-0.1-0.1-0.1l-4.8-2.6c-0.2-0.1-0.2-0.5,0-0.6
			l4.8-2.6c0.1,0,0.1-0.1,0.1-0.1l2.6-4.8C174.6,73.2,174.9,73.2,175.1,73.5z"/>
		<path id="XMLID_247_" class="st2" d="M423.6,62.2l2.5,4.5c0,0.1,0.1,0.1,0.1,0.1l4.5,2.5c0.2,0.1,0.2,0.4,0,0.6l-4.5,2.5
			c-0.1,0-0.1,0.1-0.1,0.1l-2.5,4.5c-0.1,0.2-0.4,0.2-0.6,0l-2.5-4.5c0-0.1-0.1-0.1-0.1-0.1l-4.5-2.5c-0.2-0.1-0.2-0.4,0-0.6
			l4.5-2.5c0.1,0,0.1-0.1,0.1-0.1l2.5-4.5C423.2,62,423.5,62,423.6,62.2z"/>
		<path id="XMLID_188_" class="st2" d="M109,308.8l2.1,3.8c0,0,0.1,0.1,0.1,0.1l3.8,2.1c0.2,0.1,0.2,0.4,0,0.5l-3.8,2.1
			c0,0-0.1,0.1-0.1,0.1l-2.1,3.8c-0.1,0.2-0.4,0.2-0.5,0l-2.1-3.8c0,0-0.1-0.1-0.1-0.1l-3.8-2.1c-0.2-0.1-0.2-0.4,0-0.5l3.8-2.1
			c0,0,0.1-0.1,0.1-0.1l2.1-3.8C108.6,308.6,108.9,308.6,109,308.8z"/>
		<path id="XMLID_161_" class="st0" d="M201.7,329l2.5,4.5c0,0.1,0.1,0.1,0.1,0.1l4.5,2.5c0.2,0.1,0.2,0.4,0,0.6l-4.5,2.5
			c-0.1,0-0.1,0.1-0.1,0.1l-2.5,4.5c-0.1,0.2-0.4,0.2-0.6,0l-2.5-4.5c0-0.1-0.1-0.1-0.1-0.1l-4.5-2.5c-0.2-0.1-0.2-0.4,0-0.6
			l4.5-2.5c0.1,0,0.1-0.1,0.1-0.1l2.5-4.5C201.3,328.7,201.6,328.7,201.7,329z"/>
		<path id="XMLID_163_" class="st1" d="M597.6,322.1l2.5,4.5c0,0.1,0.1,0.1,0.1,0.1l4.5,2.5c0.2,0.1,0.2,0.4,0,0.6l-4.5,2.5
			c-0.1,0-0.1,0.1-0.1,0.1l-2.5,4.5c-0.1,0.2-0.4,0.2-0.5,0l-2.5-4.5c0-0.1-0.1-0.1-0.1-0.1l-4.5-2.5c-0.2-0.1-0.2-0.4,0-0.6
			l4.5-2.5c0.1,0,0.1-0.1,0.1-0.1l2.5-4.5C597.2,321.8,597.5,321.8,597.6,322.1z"/>
		<path id="XMLID_136_" class="st2" d="M433.1,319.8l2.5,4.5c0,0.1,0.1,0.1,0.1,0.1l4.5,2.5c0.2,0.1,0.2,0.4,0,0.6l-4.5,2.5
			c-0.1,0-0.1,0.1-0.1,0.1l-2.5,4.5c-0.1,0.2-0.4,0.2-0.6,0l-2.5-4.5c0-0.1-0.1-0.1-0.1-0.1l-4.5-2.5c-0.2-0.1-0.2-0.4,0-0.6
			l4.5-2.5c0.1,0,0.1-0.1,0.1-0.1l2.5-4.5C432.7,319.6,433,319.6,433.1,319.8z"/>
		<g id="XMLID_10_">
			<path id="XMLID_12_" class="st1" d="M432.5,383.6h-41.6c-1.3,0-2.4-1.1-2.4-2.4v-17.9c0-1.3,1.1-2.4,2.4-2.4h41.6
				c1.3,0,2.4,1.1,2.4,2.4v17.9C434.9,382.5,433.8,383.6,432.5,383.6z"/>
			
				<rect id="XMLID_11_" x="403.5" y="352.2" transform="matrix(-1.836970e-16 1 -1 -1.836970e-16 784.0036 -39.4163)" class="st0" width="16.5" height="40.2"/>
		</g>
		<g id="XMLID_7_">
			<path id="XMLID_9_" class="st1" d="M699.5,138.2H658c-1.3,0-2.4-1.1-2.4-2.4V118c0-1.3,1.1-2.4,2.4-2.4h41.6
				c1.3,0,2.4,1.1,2.4,2.4v17.9C701.9,137.2,700.8,138.2,699.5,138.2z"/>
			
				<rect id="XMLID_8_" x="670.5" y="106.8" transform="matrix(-1.836970e-16 1 -1 -1.836970e-16 805.6655 -551.8145)" class="st0" width="16.5" height="40.2"/>
		</g>
		<g id="XMLID_87_">
			<path id="XMLID_94_" class="st10" d="M514.7,95.3h-44.9c-2.9,0-5.3-2.4-5.3-5.3V64.4c0-2.9,2.4-5.3,5.3-5.3h44.9
				c2.9,0,5.3,2.4,5.3,5.3v25.7C519.9,93,517.6,95.3,514.7,95.3z"/>
			<g id="XMLID_88_">
				<path id="XMLID_93_" class="st0" d="M482.4,77c0,2.5-2.1,4.6-4.6,4.6c-2.5,0-4.6-2.1-4.6-4.6c0-2.5,2.1-4.6,4.6-4.6
					C480.4,72.4,482.4,74.4,482.4,77z"/>
				<path id="XMLID_92_" class="st0" d="M496.8,77c0,2.5-2.1,4.6-4.6,4.6s-4.6-2.1-4.6-4.6c0-2.5,2.1-4.6,4.6-4.6
					S496.8,74.4,496.8,77z"/>
				<path id="XMLID_89_" class="st0" d="M511.2,77c0,2.5-2.1,4.6-4.6,4.6c-2.5,0-4.6-2.1-4.6-4.6c0-2.5,2.1-4.6,4.6-4.6
					C509.1,72.4,511.2,74.4,511.2,77z"/>
			</g>
		</g>
		<g id="XMLID_165_">
			<path id="XMLID_6_" class="st2" d="M128.6,214.3H88.9c-2.6,0-4.6-2.1-4.6-4.6V187c0-2.6,2.1-4.6,4.6-4.6h39.7
				c2.6,0,4.6,2.1,4.6,4.6v22.7C133.2,212.3,131.1,214.3,128.6,214.3z"/>
			<g id="XMLID_167_">
				<circle id="XMLID_5_" class="st0" cx="96" cy="198.1" r="4.1"/>
				<path id="XMLID_4_" class="st0" d="M112.8,198.1c0,2.2-1.8,4.1-4.1,4.1c-2.2,0-4.1-1.8-4.1-4.1s1.8-4.1,4.1-4.1
					C111,194.1,112.8,195.9,112.8,198.1z"/>
				<path id="XMLID_3_" class="st0" d="M125.5,198.1c0,2.2-1.8,4.1-4.1,4.1c-2.2,0-4.1-1.8-4.1-4.1s1.8-4.1,4.1-4.1
					C123.7,194.1,125.5,195.9,125.5,198.1z"/>
			</g>
		</g>
		<g id="XMLID_118_">
			<g id="XMLID_120_">
				<path id="XMLID_121_" class="st1" d="M553.5,307.9v43.2c0,3.9-3.2,7.1-7.1,7.1h-78c-3.9,0-7.1-3.2-7.1-7.1v-43.2
					c0-3.9,3.2-7.1,7.1-7.1h78C550.3,300.8,553.5,304,553.5,307.9z"/>
			</g>
			<path id="XMLID_119_" class="st10" d="M548.3,335.3v15.8c0,1-0.8,1.9-1.9,1.9h-78c-1,0-1.9-0.8-1.9-1.9v-19.4
				c2.8-1.7,6-2.9,9.6-2.9c12.2,0,13.8,8.2,24.2,8.2s14.4-17.1,23.8-17.1c9.4,0,10.1,18.8,18.8,18.8
				C545,338.7,546.7,337.3,548.3,335.3z"/>
		</g>
		<g id="XMLID_189_">
			<path id="XMLID_193_" class="st1" d="M511.6,390.3c0,2.5-2,4.4-4.4,4.4c-2.5,0-4.4-2-4.4-4.4s2-4.4,4.4-4.4
				C509.6,385.9,511.6,387.9,511.6,390.3z"/>
			<circle id="XMLID_192_" class="st1" cx="542.4" cy="390.3" r="4.4"/>
			<circle id="XMLID_191_" class="st1" cx="577.7" cy="390.3" r="4.4"/>
			<circle id="XMLID_190_" class="st1" cx="613" cy="390.3" r="4.4"/>
		</g>
		<path id="XMLID_111_" class="st0" d="M365.6,331.5l-18.4-31.9c-1.6-2.8-5.7-2.8-7.4,0l-18.4,31.9c-1.6,2.8,0.4,6.4,3.7,6.4h3.2
			c2.4,0,4.3,1.9,4.3,4.3V400c0,2.4,1.9,4.3,4.3,4.3h13.4c2.4,0,4.3-1.9,4.3-4.3v-57.9c0-2.4,1.9-4.3,4.3-4.3h3.2
			C365.2,337.9,367.3,334.4,365.6,331.5z"/>
		<path id="XMLID_112_" class="st0" d="M218.4,98.8l18.5,32c1.6,2.9,5.8,2.9,7.4,0l18.5-32c1.6-2.9-0.4-6.4-3.7-6.4h-3.2
			c-2.4,0-4.3-1.9-4.3-4.3V42.6c0-2.4-1.9-4.3-4.3-4.3h-13.4c-2.4,0-4.3,1.9-4.3,4.3v45.6c0,2.4-1.9,4.3-4.3,4.3h-3.2
			C218.8,92.4,216.8,96,218.4,98.8z"/>
		<g id="XMLID_95_">
			<circle id="XMLID_110_" class="st11" cx="193.8" cy="174" r="31"/>
			<circle id="XMLID_109_" class="st0" cx="193.8" cy="171.6" r="31"/>
			<circle id="XMLID_108_" class="st2" cx="193.8" cy="146.2" r="1.4"/>
			<circle id="XMLID_107_" class="st1" cx="181.4" cy="149.5" r="1.4"/>
			<path id="XMLID_106_" class="st1" d="M173,157.4c0.7,0.4,0.9,1.2,0.5,1.9c-0.4,0.7-1.2,0.9-1.9,0.5c-0.7-0.4-0.9-1.2-0.5-1.9
				C171.5,157.3,172.4,157.1,173,157.4z"/>
			<circle id="XMLID_105_" class="st2" cx="169" cy="171" r="1.4"/>
			<path id="XMLID_104_" class="st1" d="M171.6,182.3c0.7-0.4,1.5-0.2,1.9,0.5c0.4,0.7,0.2,1.5-0.5,1.9c-0.7,0.4-1.5,0.2-1.9-0.5
				C170.8,183.5,171,182.6,171.6,182.3z"/>
			<path id="XMLID_103_" class="st1" d="M180.2,191.9c0.4-0.7,1.2-0.9,1.9-0.5c0.7,0.4,0.9,1.2,0.5,1.9c-0.4,0.7-1.2,0.9-1.9,0.5
				C180.1,193.3,179.9,192.5,180.2,191.9z"/>
			<circle id="XMLID_102_" class="st2" cx="193.8" cy="195.9" r="1.4"/>
			<path id="XMLID_101_" class="st1" d="M205.1,193.2c-0.4-0.7-0.2-1.5,0.5-1.9c0.7-0.4,1.5-0.2,1.9,0.5c0.4,0.7,0.2,1.5-0.5,1.9
				C206.3,194.1,205.4,193.9,205.1,193.2z"/>
			<path id="XMLID_100_" class="st1" d="M214.7,184.6c-0.7-0.4-0.9-1.2-0.5-1.9c0.4-0.7,1.2-0.9,1.9-0.5c0.7,0.4,0.9,1.2,0.5,1.9
				C216.1,184.8,215.3,185,214.7,184.6z"/>
			<circle id="XMLID_99_" class="st2" cx="218.7" cy="171" r="1.4"/>
			<path id="XMLID_98_" class="st1" d="M216,159.8c-0.7,0.4-1.5,0.2-1.9-0.5c-0.4-0.7-0.2-1.5,0.5-1.9c0.7-0.4,1.5-0.2,1.9,0.5
				C216.9,158.6,216.7,159.4,216,159.8z"/>
			<path id="XMLID_97_" class="st1" d="M207.4,150.2c-0.4,0.7-1.2,0.9-1.9,0.5c-0.7-0.4-0.9-1.2-0.5-1.9c0.4-0.7,1.2-0.9,1.9-0.5
				C207.6,148.7,207.8,149.6,207.4,150.2z"/>
			<polyline id="XMLID_96_" class="st12" points="185.6,175.9 193.8,171 193.8,155.1 			"/>
		</g>
		<g id="XMLID_79_">
			<path id="XMLID_82_" class="st0" d="M289.4,135.4c0,2.3-1.9,4.2-4.2,4.2c-2.3,0-4.2-1.9-4.2-4.2c0-2.3,1.9-4.2,4.2-4.2
				C287.5,131.2,289.4,133.1,289.4,135.4z"/>
			<path id="XMLID_83_" class="st0" d="M307.5,135.4c0,2.3-1.9,4.2-4.2,4.2c-2.3,0-4.2-1.9-4.2-4.2c0-2.3,1.9-4.2,4.2-4.2
				C305.6,131.2,307.5,133.1,307.5,135.4z"/>
			<path id="XMLID_85_" class="st0" d="M325.6,135.4c0,2.3-1.9,4.2-4.2,4.2c-2.3,0-4.2-1.9-4.2-4.2c0-2.3,1.9-4.2,4.2-4.2
				C323.7,131.2,325.6,133.1,325.6,135.4z"/>
		</g>
		<line id="XMLID_2_" class="st13" x1="115.6" y1="465.2" x2="626.3" y2="465.2"/>
		<line id="XMLID_86_" class="st13" x1="155.1" y1="450.4" x2="189.3" y2="450.4"/>
		<g id="XMLID_302_">
			<polygon id="XMLID_304_" class="st10" points="669.6,178.2 660.1,187.7 642.5,205.4 623.5,205.4 650.6,178.2 			"/>
			<path id="XMLID_303_" class="st10" d="M653,178.2h-4.9c-1.3,0-1.8-1.7-0.6-2.4l23.2-11.5c0.7-0.4,1.6,0,1.8,0.8l2,11.5
				c0.2,0.8-0.4,1.5-1.2,1.5H653z"/>
		</g>
		<g id="XMLID_40_">
			<polygon id="XMLID_78_" class="st2" points="418.6,178.8 385.4,212 323.8,273.6 257.4,273.6 352.2,178.8 			"/>
			<polygon id="XMLID_77_" class="st3" points="513.4,273.6 447.1,273.6 385.4,212 352.2,178.8 418.6,178.8 			"/>
			<polygon id="XMLID_76_" class="st2" points="608.1,178.8 575,212 513.3,273.6 447,273.6 541.8,178.8 			"/>
			<path id="XMLID_75_" class="st2" d="M550.1,178.8h-17c-4.6,0-6.1-6.1-2.1-8.3l81.1-41.7c2.6-1.4,5.7,0,6.4,2.9l7.1,41.7
				c0.7,2.8-1.4,5.4-4.3,5.4H550.1z"/>
		</g>
		<g id="XMLID_41_">
			<g id="XMLID_69_">
				<path id="XMLID_71_" class="st14" d="M237.4,303.6l-2,11.5c-0.2,1.2,0.3,2.4,1.4,3.1l5.8,3.6c1.4,0.9,3.2-0.2,3.1-1.8L245,304
					L237.4,303.6z"/>
				<path id="XMLID_70_" class="st14" d="M244.8,303.1l3.1,9.5c0.2,0.8,0,1.6-0.7,2.1l-2,1.5L244.8,303.1z"/>
			</g>
			<path id="XMLID_68_" class="st14" d="M353,209.6h-8.7l-5.7,3.1l-3,5.2l4.6,3.4c0,0,1.3-1.4,2.4-2.8c1.5-1.9,4.6-2.6,7.1-2.7
				c0,0,12.1,0.4,12.6-1.1c0.5-1.4-1.7-2.1-3.5-3.4C356.8,210.2,355,209.6,353,209.6z"/>
			<path id="XMLID_67_" class="st14" d="M338.3,213.3c0,0,2.7-5,3.8-7.1c1.2-2.2,3.1-1.1,3.1-1.1l-1,7.3L338.3,213.3z"/>
			<path id="XMLID_66_" class="st8" d="M335.6,217.9l-14.2,19.8c0,0-5.9-9.7-10.4-17.3c-3.4-5.7-8.8-9.9-15.1-11.9l-11.9-3.7l-16,2
				l-7,1.9c-8.3,2.8-14.7,9.5-17.3,17.8c-2.4,7.7-5.2,17-7.1,22.9c-1.4,4.5-2,9.2-1.8,13.9l1.6,41.2l10.6,1.3c0,0,3.6-36,4.6-37.4
				c0.2-0.3,1.3-2.5,2.7-5.7l4.6,31.2l39.6-0.8l4.7-51.8l12.6,11.1c1.4,1.2,3.1,2.1,5,2.4c4.8,0.8,9.3-1.9,10.8-6.3l9.9-27.5
				L335.6,217.9z"/>
			<g id="XMLID_59_">
				<path id="XMLID_65_" class="st8" d="M295.9,433.2c0,0-1.9,1.2-1.9,2.6c0,1.5,0.6,3,2.2,3.7c1.6,0.7,19.7,4.9,19.7,4.9
					c3.1,0.8,6.3-0.5,8.1-3.1l0,0l-15.8-7.6c-0.9-0.5-1.9-0.8-3-1l-2.5-0.5L295.9,433.2z"/>
				<path id="XMLID_64_" class="st14" d="M302.8,424.6l1.1,8.4c0.7,2.2-7.4,2.1-7.6,0.4l-0.8-8.4L302.8,424.6z"/>
				<polygon id="XMLID_63_" class="st15" points="304.7,428.8 294.1,427.8 271.8,293.7 275.7,293.6 298.4,293.1 304.7,427.9 				"/>
				<path id="XMLID_1_" class="st10" d="M304.7,427.9l-2.1-0.2c-2.7-0.3-5-2.3-5.4-5.1l-21.5-129l22.7-0.5L304.7,427.9z"/>
				<path id="XMLID_61_" class="st16" d="M304.7,436.3c0.7-1.1,2.4-2.9,5.6-1.7"/>
				<path id="XMLID_60_" class="st16" d="M309.5,437.8c0.8-1.1,2.4-2.7,5.5-1.5"/>
			</g>
			<g id="XMLID_52_">
				<path id="XMLID_58_" class="st8" d="M246,431.6c0,0-2.1,0.6-2.5,2.1c-0.4,1.4-0.2,3,1.2,4.1c1.4,1.1,17.8,9.8,17.8,9.8
					c2.8,1.5,6.2,1.2,8.6-0.9l0,0l-13.4-11.4c-0.8-0.7-1.7-1.3-2.6-1.7l-2.3-1.2L246,431.6z"/>
				<path id="XMLID_57_" class="st14" d="M254.8,425.1l-1.1,8.4c0.1,2.3-7.7,0.1-7.5-1.6l1.4-8.3L254.8,425.1z"/>
				<polygon id="XMLID_56_" class="st15" points="255.7,429.6 245.7,425.9 257.9,289.6 262.1,291.5 288.8,298 255.9,428.7 				"/>
				<path id="XMLID_55_" class="st10" d="M255.9,428.7l-2-0.7c-2.6-1-4.2-3.5-3.9-6.3l12.2-130.2l27.7,3.5L255.9,428.7z"/>
				<path id="XMLID_54_" class="st16" d="M253.7,436.9c1-0.9,3-2.2,5.9-0.2"/>
				<path id="XMLID_53_" class="st16" d="M258,439.5c1-0.9,3-2,5.7,0"/>
			</g>
			<path id="XMLID_51_" class="st0" d="M266.9,209.6l13.5,30.9l6.3-32.1c0.4-2-1.3-3.9-3.4-3.6l-14.7,1.8
				C267.2,206.8,266.4,208.3,266.9,209.6z"/>
			<polygon id="XMLID_50_" class="st17" points="298.4,293.1 299.1,289 257.9,289.6 257.4,294.2 			"/>
			<path id="XMLID_49_" class="st14" d="M270.2,207.5l-0.7-18.2l14.1,7.5v10.1C279,208.6,274.5,209,270.2,207.5z"/>
			<path id="XMLID_48_" class="st14" d="M293.6,177.8c1.1,5.8,0.9,11.7-0.4,17.5l-0.7,3.1c-0.3,2.3-2.3,3.9-4.6,3.6l-1.3-0.2
				c-2.4-0.3-4.8-1.2-6.8-2.5l-10.1-6.6l-2.1-4.3c-1-1.6-1.5-3.5-1.5-5.4v-5c0-2.2,0.7-4.4,2.1-6.2l0,0c1.9-2.5,4.9-4,8.1-4h7.2
				c3.7,0,7.1,2,8.9,5.2v0C293.1,174.6,293.6,176.2,293.6,177.8L293.6,177.8z"/>
			<path id="XMLID_47_" class="st8" d="M266.2,185.5l-1.1-4.7l-0.4-4.6c-0.3-3.5,1.6-6.8,4.9-8.2l0,0c3.6-1.6,7.4-2.6,11.3-3
				l11.9-1.1c2.5-0.2,4.4,2.2,3.6,4.6l0,0c-1.1,3.5-1.5,6.7-6.1,7.4c-4.6,0.7-10.5,1.7-10.5,1.7c-2,0.4-3.8,1.3-5.4,2.6
				c0,0-3.5,4.4-4.1,7.1l-1.4,3.6l0,0C267.7,189.4,266.7,187.5,266.2,185.5z"/>
			<path id="XMLID_46_" class="st14" d="M272.5,188.3c0.6,2.5,0,4.7-1.2,5c-1.3,0.3-2.8-1.4-3.4-3.9c-0.6-2.5,0-4.7,1.2-5
				C270.4,184.1,271.9,185.8,272.5,188.3z"/>
			<path id="XMLID_45_" class="st8" d="M270.8,183.6v9.7c0,0,0.6,3.7,1.9,4.3c1.3,0.5,11.4,4.7,11.5,4.9c0,0.1,1.9,0.1,3.6,0.1
				c1.7,0,3.2-0.9,4.1-2.3l1.8-2.8c0,0,0.6-1.6,0.6-2.8c0-1.1-1.5-2.7-2.7-3c-1.2-0.3-3.4,0-3.4,0c-0.8,0-1.5,0.1-2.2,0.4l-2.5,0.9
				c-1.5,0.6-3.2,0.5-4.7-0.1l-0.9-0.4c-1.3-0.6-2.3-1.8-2.4-3.3l-1.2-10.8L270.8,183.6z"/>
			<polygon id="XMLID_44_" class="st5" points="278.9,288.7 278.5,293.5 286.9,293.5 287.4,288.6 			"/>
			<path id="XMLID_43_" class="st8" d="M279.4,218.3c0.1,0.5-0.3,0.9-0.7,1c-0.5,0.1-0.9-0.3-1-0.7c-0.1-0.5,0.3-0.9,0.7-1
				C278.9,217.5,279.3,217.8,279.4,218.3z"/>
			<path id="XMLID_42_" class="st8" d="M280.6,226.9c0.1,0.5-0.3,0.9-0.7,1s-0.9-0.3-1-0.7c-0.1-0.5,0.3-0.9,0.7-1
				C280.1,226.1,280.5,226.4,280.6,226.9z"/>
		</g>
	</g>
</g>
</svg>
